<?xml version="1.0" encoding="utf-8"?>
<!-- Generator: Adobe Illustrator 23.0.2, SVG Export Plug-In . SVG Version: 6.00 Build 0)  -->
<svg version="1.1" id="Layer_1" xmlns="http://www.w3.org/2000/svg" xmlns:xlink="http://www.w3.org/1999/xlink" x="0px" y="0px"
	 viewBox="0 0 1041.3 554.2" style="enable-background:new 0 0 1041.3 554.2;" xml:space="preserve">
<style type="text/css">
	.st0{opacity:0.1;fill:#F9C126;enable-background:new    ;}
	.st1{opacity:0.1;}
	.st2{fill:#F9C126;}
	.st3{fill:#565656;}
	.st4{fill:#7D7D7D;}
	.st5{opacity:0.2;enable-background:new    ;}
	.st6{opacity:0.1;enable-background:new    ;}
	.st7{fill:#D4DFEC;}
	.st8{fill:#FBD5D5;}
	.st9{fill:url(#SVGID_1_);}
	.st10{fill:none;stroke:#F9C126;stroke-width:2;stroke-miterlimit:10;}
</style>
<title>programming</title>
<path class="st0" d="M961.5,438.2c-1.2,2.5-2.3,5-3.5,7.4c-1.8,3.8-3.6,7.5-5.3,11.1c-0.8,1.6-1.6,3.2-2.3,4.8
	c-8.6,17.6-16.6,33.1-23.5,45.9c-12.6,23.6-37.1,38.4-63.8,38.7l-151.6,1.7h-1.6l-13,0.1l-11.1,0.1l-34.1,0.4h-1.4l-17.4,0.2h-0.5
	l-107,1.2l-95.5,1l-11.1,0.1l-69,0.8h-0.1l-44.8,0.5h-0.5l-141.5,1.5l-42.3,0.5c-9,0.1-18-1.2-26.7-3.8c-15-4.5-28.6-13.1-39.1-24.8
	c-18.2-20-31.4-43.4-40.3-68.8c-1.3-3.7-2.5-7.4-3.6-11.1c-30.8-104.2,6.8-238.5,74.4-328.4c2.8-3.8,5.7-7.4,8.6-11l0.1-0.1
	c20.8-25.5,44.1-46.8,68.9-62c44-26.9,92.8-34.5,140.7-11.9c40.6,19.1,78.5,28.1,115.2,30.6c3.7,0.2,7.4,0.4,11.1,0.5
	C514.1,65.9,593,35.6,685.8,16c3.7-0.8,7.4-1.6,11.1-2.3C763,0.5,836.4-6.4,923.6,8.2c9.1,1.5,18,3.6,26.8,6.4
	c3.8,1.2,7.6,2.6,11.1,4c41.6,16.9,64.3,48.2,74,87.5c0.9,3.6,1.7,7.3,2.4,11.1C1055,211.5,1004.8,345.3,961.5,438.2z"/>
<g class="st1">
	<path class="st2" d="M162.9,44.1v509.6l-42.3,0.5c-9,0.1-18-1.2-26.7-3.8V106.1H94C114.8,80.5,138.1,59.2,162.9,44.1z"/>
	<path class="st2" d="M1037.9,117.2H85.3c2.8-3.8,5.7-7.4,8.6-11v-0.1h941.6C1036.4,109.7,1037.2,113.4,1037.9,117.2z"/>
	<path class="st2" d="M961.5,18.6v427H958c-1.8,3.8-3.6,7.5-5.3,11.1c-0.8,1.6-1.6,3.2-2.3,4.8V14.6
		C954.2,15.8,957.9,17.1,961.5,18.6z"/>
	<path class="st2" d="M696.9,13.7v534.3l-11.1,0.1V15.9C689.4,15.2,693.1,14.4,696.9,13.7z"/>
	<path class="st2" d="M429.9,63.2v487.6l-11.1,0.1V62.7C422.5,62.9,426.2,63.1,429.9,63.2z"/>
	<path class="st2" d="M958,445.6c-1.8,3.8-3.6,7.5-5.3,11.1H14.5c-1.3-3.7-2.5-7.4-3.6-11.1H958z"/>
</g>
<rect x="211.6" y="265.8" class="st3" width="19" height="57.7"/>
<rect x="722.9" y="262.8" class="st3" width="19" height="61"/>
<polygon class="st4" points="863.1,533.7 863.1,546.7 711.2,548 709.6,548.1 651.8,548.6 650.4,548.6 632.9,548.8 632.4,548.8 
	525.4,549.8 349.8,551.4 349.6,551.4 305,551.8 304.5,551.8 106.1,553.7 106.1,538.7 152.8,510.6 246.4,509.9 248.4,509.9 
	249,509.9 251,509.8 296,509.5 298,509.4 298.6,509.4 300.6,509.4 315,509.3 315.4,509.3 350.9,509 351.2,509 628.6,506.6 
	635.4,506.6 636.1,506.6 641.3,506.5 678.9,506.2 680.9,506.2 682.8,506.2 683.7,506.2 695.5,506.1 697.8,506.1 700.9,506 
	710.6,506 726.1,505.8 728.1,505.8 731.6,505.8 732.2,505.8 806.9,505.1 "/>
<polygon class="st5" points="863.1,533.7 863.1,546.7 711.2,548 709.6,548.1 651.8,548.6 650.4,548.6 632.9,548.8 632.4,548.8 
	525.4,549.8 349.8,551.4 349.6,551.4 305,551.8 304.5,551.8 106.1,553.7 106.1,538.7 152.8,510.6 246.4,509.9 248.4,509.9 
	249,509.9 251,509.8 296,509.5 298,509.4 298.6,509.4 300.6,509.4 315,509.3 315.4,509.3 350.9,509 351.2,509 628.6,506.6 
	635.4,506.6 636.1,506.6 641.3,506.5 678.9,506.2 680.9,506.2 682.8,506.2 683.7,506.2 695.5,506.1 697.8,506.1 700.9,506 
	710.6,506 726.1,505.8 728.1,505.8 731.6,505.8 732.2,505.8 806.9,505.1 "/>
<path class="st3" d="M296.1,483.7v24.5c0,2.4-1.4,4.5-3.5,5.5c-0.8,0.4-1.6,0.6-2.5,0.6l-34.9,0.7c-0.9,0-1.9-0.2-2.7-0.6
	c-2.2-1-3.6-3.2-3.6-5.6v-25.2H296.1z"/>
<path class="st6" d="M296.1,483.7v24.5c0,2.4-1.4,4.5-3.5,5.5c-0.8,0.4-1.6,0.6-2.5,0.6l-34.9,0.7c-0.9,0-1.9-0.2-2.7-0.6
	c-2.2-1-3.6-3.2-3.6-5.6v-25.2H296.1z"/>
<path class="st3" d="M298.1,483.7v24.5c0,2.4-1.4,4.5-3.5,5.5c-0.8,0.4-1.6,0.6-2.5,0.6l-34.9,0.7c-0.9,0-1.9-0.2-2.7-0.6
	c-2.2-1-3.6-3.2-3.6-5.6v-25.2H298.1z"/>
<rect x="680.9" y="483.7" class="st3" width="47.2" height="31.5"/>
<rect x="680.9" y="483.7" class="st6" width="47.2" height="31.5"/>
<rect x="678.9" y="483.7" class="st3" width="47.2" height="31.5"/>
<polygon class="st6" points="230.6,265.8 230.6,271.5 211.6,271.1 211.6,265.8 "/>
<path class="st4" d="M355.7,104.4l-22.8,164c-0.3,2.2-2.2,3.8-4.4,3.7l-182.8-4.7l-3.5-0.1c-2.4-0.1-4.3-2-4.2-4.4
	c0-0.2,0-0.3,0-0.5l25.6-171.7c0.3-2.2,2.3-3.8,4.5-3.6l183.5,12.4c2.4,0.1,4.2,2.2,4,4.5C355.7,104.2,355.7,104.3,355.7,104.4z"/>
<polygon class="st2" points="175.9,99.2 156.6,250.5 324.6,255.8 345.3,109.8 "/>
<path class="st4" d="M389.9,96.8h194c2.9,0,5.3,2.4,5.3,5.3v162.7c0,2.9-2.4,5.3-5.3,5.3h-194c-2.9,0-5.3-2.4-5.3-5.3V102.2
	C384.6,99.2,387,96.8,389.9,96.8z"/>
<rect x="394.3" y="108.5" class="st2" width="186" height="144.3"/>
<polygon class="st6" points="741.9,262.8 741.9,266.6 722.9,267 722.9,262.8 "/>
<path class="st4" d="M827.7,259.6c0.1,1.7-1.2,3.2-2.9,3.3c0,0-0.1,0-0.1,0l-187.2,3.9c-1.6,0-3-1.2-3.1-2.8L618.2,96.7
	c-0.2-1.7,1.1-3.2,2.8-3.4c0,0,0.1,0,0.1,0l185.8-9.2l2-0.1c1.7-0.1,3.1,1.2,3.2,2.8L827.7,259.6z"/>
<polygon class="st2" points="628.9,103.2 798.6,94.8 812.9,246.8 644.6,250.8 "/>
<path class="st6" d="M827.7,259.6c0.1,1.7-1.2,3.2-2.9,3.3c0,0-0.1,0-0.1,0L806.9,84.1l2-0.1c1.7-0.1,3.1,1.2,3.2,2.8L827.7,259.6z"
	/>
<path class="st6" d="M168.2,87.1l-22.6,180.3l-3.5-0.1c-2.4-0.1-4.3-2-4.2-4.4c0-0.2,0-0.3,0-0.5l25.6-171.7
	C164,88.5,166,86.9,168.2,87.1z"/>
<rect x="211.6" y="306.4" class="st6" width="19" height="17.1"/>
<polygon class="st6" points="298.1,483.6 298.1,488.6 250.9,489.9 250.9,483.6 "/>
<path class="st4" d="M381.4,312.4v168.2c0,2.1-1.7,3.9-3.9,4l-191.6,5.1h0c-2.2,0-3.9-1.8-4-4V312.4c0-2.2,1.8-3.9,4-4h191.6
	C379.6,308.4,381.3,310.2,381.4,312.4z"/>
<path class="st6" d="M185.9,308.4v181.2h0c-2.2,0-3.9-1.8-4-4V312.4C181.9,310.2,183.6,308.4,185.9,308.4L185.9,308.4z"/>
<polygon class="st7" points="194.6,319.1 372.1,319.1 372.1,467.4 194.6,471.4 "/>
<rect x="722.9" y="306.4" class="st6" width="19" height="17.4"/>
<polygon class="st6" points="726.1,483.6 726.1,490.1 678.9,488.8 678.9,483.6 "/>
<path class="st4" d="M788.3,312.4v173.3c0,2.2-1.8,4-4,4l0,0l-191.7-5.1c-2.1-0.1-3.8-1.8-3.8-4V312.4c0-2.2,1.8-3.9,3.9-4h191.6
	C786.5,308.4,788.3,310.2,788.3,312.4z"/>
<path class="st6" d="M788.3,312.4v173.3c0,2.2-1.8,4-4,4l0,0V308.4l0,0C786.5,308.4,788.3,310.2,788.3,312.4z"/>
<polygon class="st7" points="775.6,319.1 598.1,319.1 598.1,467.4 775.6,471.4 "/>
<path class="st4" d="M583.8,312.4v168.2c0,2.1-1.7,3.9-3.8,4l-191.6,5.1l0,0c-2.2,0-4-1.8-4-4V312.4c0-2.2,1.8-3.9,4-4h191.6
	C582.1,308.4,583.8,310.2,583.8,312.4z"/>
<polygon class="st7" points="397.1,319.1 574.6,319.1 574.6,467.4 397.1,471.4 "/>
<polygon class="st6" points="863.1,533.7 863.1,546.7 711.2,548 709.6,548.1 651.8,548.6 650.4,548.6 632.9,548.8 632.4,548.8 
	525.4,549.8 349.8,551.4 349.6,551.4 305,551.8 304.5,551.8 106.1,553.7 106.1,538.7 308.6,537.3 309.1,537.3 350.1,537 350.3,537 
	633.3,535.2 633.6,535.2 633.8,535.2 634.3,535.2 639.1,535.1 640.5,535.1 715,534.6 719.4,534.6 720.4,534.6 "/>
<circle class="st8" cx="487.3" cy="272.2" r="51.3"/>
<linearGradient id="SVGID_1_" gradientUnits="userSpaceOnUse" x1="597.785" y1="-169.44" x2="597.785" y2="208.0166" gradientTransform="matrix(1 0 0 -1 -79.34 383.09)">
	<stop  offset="0" style="stop-color:#808080;stop-opacity:0.25"/>
	<stop  offset="0.54" style="stop-color:#808080;stop-opacity:0.12"/>
	<stop  offset="1" style="stop-color:#808080;stop-opacity:0.1"/>
</linearGradient>
<path class="st9" d="M304.4,552.2c0-0.1,0.1-0.2,0.1-0.3c1-3.6,2.8-9.7,4.1-14.5c0.2-0.6,0.3-1.2,0.5-1.8c1.5-5.5,4.3-18.3,5.9-26.3
	c0.6-2.8,1-5,1.1-6.1c0.2-1.7,3.2-8.9,6.6-17.2c2.4-5.8,5-12.2,6.9-17.6c1.3-3.2,2.2-6.5,2.9-9.8c0.1-0.7,0.1-1.4,0-2.1
	c-0.3-1.1-0.5-2.3-0.5-3.5l0,0c-0.2-6.2,1.6-16,4.5-20.1c3.5-5,6-23.7,6-23.7s5.2,0.8,6-3.5c0.1-0.5,0.1-0.9,0.1-1.4
	c0-0.4,0-0.7-0.1-1.1c-0.9-6.2,14.7-12.9,23.5-14.3c1-0.2,2-0.3,3-0.3c2.1-0.2,4.2-0.7,6.2-1.4c0.9-0.3,1.9-0.6,3-1
	c3.7-1.2,8.1-2.9,12.8-4.7c17.6-6.8,38.8-16,38.8-16c0.2-0.7,0.3-1.4,0.5-2.1c2.1-8.6,8.2-15.6,16.3-18.9l0,0c0-0.7,0-1.3,0-2
	c0-3.5-0.2-7-0.3-10.5c0-0.7-0.1-1.4-0.1-2.1c0-0.2,0-0.4,0-0.6s0-0.4,0-0.5c0-0.7-0.1-1.4-0.1-2.1l-0.2-0.1
	c-1.5-1.2-2.9-2.6-3.9-4.2c-0.6-0.9-1.1-2-1.4-3c-1.2-3.4-1.5-7.2-2.4-10.8l-0.2-0.7c-1.1-3.6-2.4-7.1-4-10.6
	c-2.2-5.4-3.9-11-5.6-16.6c-1-3.4-2.1-6.8-3.1-10.3l-1.6-5.2c-0.3-1-0.6-2-0.8-3l0,0c-0.1-0.5-0.2-0.9-0.3-1.4l0,0
	c-0.3-1.5-0.2-3.1,0.2-4.6c0.4-1,0.8-2,1.3-3c0.2-0.4,0.4-0.9,0.5-1.4l0,0c0-0.1,0.1-0.2,0.1-0.3c0.1-0.4,0.1-0.7,0.1-1.1
	c0-1.3-0.2-2.6-0.5-3.9c0,0,0,0,0,0c0-0.1,0-0.2,0-0.3c-0.2-1-0.3-2-0.4-3c-0.4-5.4,0.9-10.8,3.5-15.6l0.2-0.4
	c0.6-1,1.2-1.9,1.8-2.8l0,0c0.3-0.4,0.6-0.8,1-1.2c-1.4,1.3-3.7,0.8-5-0.7c-0.2-0.2-0.4-0.5-0.5-0.8c-0.1-0.1-0.2-0.3-0.2-0.5
	c0-0.1-0.1-0.2-0.1-0.4c-0.7-2.5,0.5-5.1,2.1-7c1.6-1.9,3.5-3.5,5.7-4.7l0,0c0.1-0.1,0.3-0.1,0.4-0.2c0.8-0.4,1.7-0.8,2.6-1.1l0,0
	c0.5-0.2,1.1-0.3,1.6-0.4l-3.7-0.3l-1.5-0.1c1.5-6.1,6.8-10.5,13-10.9h1.1c0.5,0,1.1,0.1,1.6,0.1c-1.7-0.7-2.8-2.5-2.7-4.3
	c2.6,2,5.9,3.1,9.2,3.1h0.4c-0.2-1.1-0.3-2.2-0.3-3.3l0,0l0,0l0,0c-0.1-1.5-0.1-3,0-4.5c1.8,1.7,4.3,2.5,6.8,2.3l-2.1-2.9
	c1.9,1.5,4.2,2.2,6.6,2l0.5,0c0.4,0,0.8-0.1,1.2-0.2h0.1c-0.2-0.2-0.4-0.5-0.5-0.8l-0.1-0.1c-0.4-0.7-0.8-1.4-1-2.1
	c-0.1-0.3-0.2-0.6-0.2-0.9l0,0c-0.4-1.8-0.3-3.7,0.5-5.5c3.2,2.7,6.8,6.4,11,3.6s4.4-7.9,11-7.4c3.7,0.4,6.9,2.7,8.4,6.1
	c1.9-2.2,5-2.9,7.7-1.8c2.6,1.2,4.2,4,3.9,6.9c2.8-0.7,5.7-1.4,8.3-0.3c2.6,1,4.3,4.4,2.8,6.7c0,0.1-0.1,0.1-0.1,0.2
	c-1.2,1.6-3.9,2.5-3.7,4.5l0.4,0.3l1.3,0.9l0,0c5.1,3.7,10.1,7.5,14.9,11.6c2.5,2.1,5.1,4.6,5.3,7.8c0,0.8-0.1,1.6-0.2,2.4l0,0
	c-0.2,0.8-0.4,1.6-0.5,2.3c-0.4,2-0.5,4-0.3,6l0,0c0.1,0.6,0.2,1.2,0.3,1.8c1.5,7.7,7.7,14.1,8.3,22v0.6c0,0.8,0,1.7-0.1,2.5
	c-0.5,4.8-2.7,9.4-4.5,14c-0.1,0.3-0.2,0.6-0.3,0.8c-3.5,9-5.5,18.6-7,28.2c-0.5,3.4-1.2,6.8-2,10.1c-0.9,3.8-2.7,7.4-5.1,10.4
	c-1,1.2-2.1,2.2-3.4,3c-0.8,0.5-1.7,1-2.7,1.4c0,0,0,0,0,0.1c0.1,0.6,0.2,1.2,0.3,1.8c0.1,0.3,0.1,0.6,0.2,1l0,0c0,0,0,0,0,0.1
	c0.8,4.7,1.8,9.4,2.8,13.8l0.5,2.2c12.6,4.5,14.1,13.9,14.2,17.4c0,0.5,0,1,0,1.4c0,0,19,0.5,26.5,6c1.4,1,2.9,1.7,4.5,2.3
	c3,1.1,6.1,2.1,9.2,2.9c1.6,0.4,3.3,0.8,5,1.2c3,0.7,6.2,1.4,9.2,2c8.2,1.7,15.9,3,19.8,4c9.3,2.4,30.7,22.8,30.7,22.8
	s2.5,20.6,5,23.7s7,13.6,7,13.6l16.5,29.4l7,12.4h4.5c0.6,0,1.8,0.9,3.2,2.1c1.2,1.1,2.5,2.4,3.7,3.6l1.9,2l1.2,1.3
	c0,0,7.3,0.2,9.2,5.9c5.9-0.2,13.2,0.2,18.3,2.5c0.7,0.3,1.4,0.7,2,1.1c2.1,1.2,3.6,3.3,4.1,5.7c0.1,0.5,0.2,1,0.2,1.4
	c0,0.6,0,1.1,0,1.7c-0.4,7.6-5.3,13.9-9.8,18.1l0.3,0.6c0,0-0.2,0.4-0.4,1c-0.1,0.2-0.2,0.4-0.3,0.6l0,0c-0.6,1.3-1.5,3.2-2.8,5.4
	c-2.6,4.8-5.8,9.2-9.6,13.2l-0.3,0.3l-57.7,0.5l-0.2-0.2l-11.2-13.4l-5.6-6.6l-0.2-0.2l-0.2,1.6l-0.5,5.3l-1.3,12.8l-0.1,0.6v0.2
	l-0.2,1.5l0.1-1.5h-0.3l-107,1l-175.6,1.9v0.8h-0.1v-0.8l-44.8,0.5L304.4,552.2z"/>
<path class="st8" d="M538.6,377.2c0,0-99.5,12-90,0c3.4-4.3,4.4-17.2,4.2-31.8c-0.1-4.5-0.2-9.1-0.5-13.6c-1.1-22-3.8-43.5-3.8-43.5
	s87-41,77-8.5c-4,13.1-2.7,31.6,0.3,48.9c0.9,5,1.9,10,3,14.7C531.6,354.7,534.8,366,538.6,377.2z"/>
<path class="st6" d="M538.6,377.2c0,0-99.5,12-90,0c3.4-4.3,4.4-17.2,4.2-31.8c15.2-6.5,34.5-1.7,34.5-1.7c20.3-4,33.4-3.3,41.7-0.4
	C531.6,354.7,534.8,366,538.6,377.2z"/>
<path class="st2" d="M349.7,552.5v-0.8l175.6-1.9l107-1h0.3l-0.1,1.5l0.2-1.5h0.2v-0.2l1.4-13.4l0.5-5.1l0.2-1.6l0.1-1.3l6.2-20.6
	l6.2-20.6l5.2-17.3l7.9-26.5c0,0-4.5-10.5-7-13.5s-5-23.5-5-23.5s-21.3-20.3-30.7-22.7c-3.9-1-11.6-2.3-19.8-4
	c-3.1-0.6-6.2-1.3-9.2-2c-1.7-0.4-3.4-0.8-5-1.2c-3.1-0.8-6.2-1.7-9.2-2.9c-1.6-0.6-3.1-1.3-4.5-2.3c-7.3-5.4-25.8-6-26.5-6l0,0
	c0,0,0,0,0-0.1V364c0-0.4,0-0.8,0-1.3c0-0.4,0-0.9-0.1-1.4c0-0.2,0-0.3-0.1-0.5c-0.1-0.4-0.1-0.7-0.2-1.1c0-0.2-0.1-0.4-0.1-0.5
	c-0.3-1.2-0.7-2.4-1.2-3.5c-0.1-0.2-0.2-0.3-0.2-0.5c-0.5-0.9-1.1-1.8-1.7-2.6c-0.1-0.2-0.3-0.3-0.4-0.5c-0.8-1-1.7-1.9-2.7-2.6
	c-0.3-0.2-0.5-0.4-0.8-0.6c-0.2-0.1-0.3-0.3-0.5-0.4l-0.9-0.6l-0.8-0.5c-0.7-0.4-1.5-0.8-2.3-1.2c-0.3-0.1-0.5-0.2-0.8-0.3
	s-0.7-0.3-1.1-0.4h-0.1l-0.7-0.3c-0.6-0.2-1.2-0.4-1.8-0.5l-0.9-0.2l-1-0.2l-1-0.2c-1-0.2-2.1-0.4-3.2-0.5l-1.1-0.1l-1.2-0.1
	l-1.2-0.1l-1.7-0.1l-2-0.1c-8.8,0-17.6,0.9-26.2,2.8c-6-1.3-12.1-1.9-18.3-1.7h-0.9l-1,0.1h-0.6l-1.3,0.1c-0.4,0-0.9,0.1-1.3,0.2
	s-0.9,0.1-1.3,0.2l-0.7,0.1c-0.7,0.1-1.3,0.2-2,0.4c-0.2,0-0.4,0.1-0.7,0.2c-0.9,0.2-1.7,0.4-2.6,0.7c-0.4,0.1-0.9,0.3-1.3,0.4
	c-0.2,0.1-0.4,0.1-0.6,0.2l-0.6,0.2l-0.6,0.2l-0.8,0.3c-0.4,0.2-0.8,0.3-1.1,0.5c-0.2,0.1-0.4,0.2-0.6,0.3s-0.4,0.2-0.6,0.3
	c-2.3,1.2-4.4,2.6-6.2,4.4l-0.5,0.5l-0.5,0.5c-0.2,0.2-0.3,0.3-0.5,0.5c-0.7,0.7-1.3,1.5-1.8,2.2c-0.2,0.2-0.3,0.4-0.5,0.6
	c-0.6,0.9-1.2,1.9-1.7,2.9c-0.1,0.2-0.2,0.5-0.4,0.7c-0.8,1.7-1.5,3.4-2,5.2c-0.2,0.7-0.4,1.3-0.5,2c-0.2,1-21.2,9.3-38.7,16.1
	c-4.7,1.8-9.1,3.4-12.8,4.7c-1.1,0.4-2.1,0.7-3,1c-2,0.7-4.1,1.2-6.2,1.4c-1,0-2,0.1-3,0.3c-8.1,1.3-21.9,7-23.4,12.7
	c-0.1,0.5-0.2,0.9-0.1,1.4c0,0,0,0.1,0,0.1c1,7-6,6-6,6s-2.5,18.5-6,23.5c-2.5,3.6-4.3,11.6-4.5,17.7l0,0c-0.1,1.9,0,3.8,0.4,5.6
	c0,0,0,0.1,0,0.1c0.4,1.3-0.6,5-2.2,9.7c-1.8,5.2-4.4,11.5-6.8,17.6c-3.7,9.1-7.3,17.4-7.5,19.2c-0.1,0.8-0.4,2.3-0.7,4.1
	c-1.5,7.6-4.7,22.1-6.3,28c-1.2,4.4-2.9,10.4-4.1,14.5c0,0.1-0.1,0.2-0.1,0.3l44.8-0.4L349.7,552.5L349.7,552.5L349.7,552.5z"/>
<path class="st6" d="M366.1,434.7c0,0,57,29.5,77.5,26L366.1,434.7z"/>
<path class="st6" d="M482.1,422.7c0,0,55.5,18,74,20.5S482.1,422.7,482.1,422.7z"/>
<path class="st6" d="M543.7,364.7c-29,5.3-83.6,4.2-107.2,3.4c8.7-31,50.8-20.5,50.8-20.5C539.5,337.2,543.5,358.9,543.7,364.7z"/>
<path class="st2" d="M543.7,362.7c-29,5.3-83.6,4.2-107.2,3.4c8.7-31,50.8-20.5,50.8-20.5C539.5,335.2,543.5,356.9,543.7,362.7z"/>
<path class="st8" d="M697.6,499.4c0,0,34.2-5.2,34.8,9.8c0.7,15-17.4,25.5-17.4,25.5L697.6,499.4z"/>
<path class="st6" d="M525.9,328.5c-1.5,0.7-3,1.2-4.5,1.7c-10.8,3.7-21.6,7.5-33,8.8c-11.3,1.4-23.3,0.2-33.2-5.5c-1-0.6-2-1.2-3-2
	c-1.1-22-3.8-43.5-3.8-43.5s87-41,77-8.5C521.6,292.8,522.9,311.2,525.9,328.5z"/>
<path class="st3" d="M473.2,191.9c-2.9,0.8-6,0.1-8.3-1.8l2.1,2.9c-2.5,0.3-5-0.5-6.8-2.2c-0.2,2.6-0.1,5.2,0.3,7.8
	c-3.4,0.2-6.8-0.9-9.6-3c-0.1,1.8,0.9,3.6,2.6,4.3c-7.2-0.9-13.8,3.7-15.6,10.7l5.2,0.5c-4.1,0.9-7.8,3.1-10.4,6.4
	c-1.6,2-2.8,4.6-2.1,7s4.1,4,5.9,2.3c-5.3,6.3-7.5,14.7-6.1,22.8c0.5,1.7,0.6,3.5,0.5,5.3c-0.3,1.6-1.4,3.1-1.9,4.7
	c-1,2.9,0,6.1,0.8,9l4.7,15.4c1.7,5.6,3.4,11.1,5.6,16.5c1.6,3.4,2.9,6.9,4,10.5c1.3,4.8,1.3,10.1,4,14.4c1.8,2.7,4.3,4.8,7.2,6.3
	c9.9,5.7,21.8,6.9,33.2,5.5s22.2-5.1,33-8.8c2.4-0.7,4.7-1.7,6.8-3c7.5-4.9,9.1-14.9,10.5-23.6c1.6-9.8,3.6-19.6,7.3-28.8
	c2.2-5.5,5-11.1,4.5-16.9c-0.6-7.8-6.8-14.1-8.3-21.8c-0.5-2.6-0.5-5.2,0.1-7.8c0.5-1.5,0.7-3.1,0.8-4.7c-0.2-3.2-2.8-5.7-5.3-7.8
	c-5.4-4.5-10.9-8.7-16.7-12.7c-0.3-2,2.4-2.9,3.7-4.4c1.7-2.2-0.1-5.8-2.7-6.8s-5.6-0.4-8.3,0.3c0.5-3.6-2.1-6.9-5.7-7.4
	c-2.2-0.3-4.4,0.6-5.8,2.3c-1.5-3.4-4.7-5.7-8.4-6.1c-6.6-0.5-6.8,4.5-11,7.3s-7.7-0.9-11-3.6C470.6,185.8,471.1,189.3,473.2,191.9z
	"/>
<path class="st2" d="M722.9,529.4c0,0-0.9,2.1-2.5,5.2c-2.5,4.7-5.5,9.1-9,13.2l-0.3,0.3h-1.6l-57.7,0.5h-1.4l-0.2-0.2L639,535.1
	l-4.2-5l-0.2-0.2l-0.4-0.4l-0.2-0.2l-0.3-0.3l-8.2-9.7l3-12.5l5.1-21.1l0.1-0.5l1-4l0.7-3l2.4-9.8l8.2-33.7l14.5,7.5l15.3,27
	l8.2,14.5h4.5c0.8,0,2.8,1.6,4.8,3.5c0.7,0.7,1.4,1.4,2,2c1.8,1.8,3.2,3.4,3.2,3.4s7.3,0.2,9.2,5.9c0.1,0.3,0.2,0.6,0.2,0.8
	c0.7,2.3,1.5,4.5,2.5,6.6c1.3,2.8,2.9,6,4.5,9.2c3.1,5.8,6.2,11.4,7.3,13.4l0.1,0.2L722.9,529.4z"/>
<path class="st6" d="M637,484.3l-0.1,1.4v0.1l-0.2,2.3l-1.3,18.5l-1.6,22.3l-0.5,6.3l-1,13.4v0.2l-107,1l-175.6,1.9v0.8h-0.1v-0.8
	v-0.3l0.5-14.4l0.9-28.1l0.7-23.8l0.1-2.4c0.2-5.8,5-10.4,10.8-10.2c0.2,0,0.4,0,0.6,0c4.7,0.4,10.9,0.9,18.2,1.4l3,0.2
	c42.3,2.9,120.6,6.7,199.5,2c1.7-0.1,3.3-0.2,5-0.3c12.2-0.8,24.5-1.8,36.6-3c5.8-0.6,11,3.6,11.6,9.4
	C637.1,483,637.1,483.6,637,484.3L637,484.3z"/>
<path class="st3" d="M349.7,552.5v-0.8l175.6-1.9l107-1h0.3v-0.2l1-13.4l0.4-6l1.6-22.6l1.3-17.9v-0.4c0.1-0.8,0-1.7-0.1-2.5
	c0,0,0-0.1,0-0.1c-0.3-1.7-1-3.3-2-4.6c-2.2-2.9-5.8-4.4-9.4-4c-12.1,1.2-24.3,2.2-36.6,3c-1.7,0.1-3.3,0.2-5,0.3
	c-78.9,4.7-157.2,0.9-199.5-2l-3-0.2c-7.3-0.5-13.5-1-18.2-1.4c-5.4-0.5-10.2,3.2-11.2,8.5c-0.1,0.5-0.2,1.1-0.2,1.6l-0.7,22.2
	l-0.9,28.1l-0.4,14.4v0.3L349.7,552.5L349.7,552.5z"/>
<path class="st6" d="M637.3,491.3l-1.2,15.3l-1.8,22.8l-0.5,5.7l-1,12.8l-0.1,0.6v0.2l0,0l-0.2,1.5l0.1-1.5h-0.3l-107,1l-175.6,1.9
	v-0.3l0.5-14.4l1-28.1l0.6-18.7c0.1-2.2,1.2-4.1,3.1-5.2c1.1-0.7,2.5-1,3.8-0.9c2.1,0.2,4.7,0.4,7.7,0.6c4.9,0.4,10.9,0.8,17.9,1.2
	c13,0.8,29.3,1.7,48,2.4c52,2,122.2,2.7,188.9-3.2c3-0.3,6.1-0.5,9.1-0.8c1.2-0.1,2.4,0.1,3.5,0.7c0.3,0.2,0.6,0.3,0.9,0.5
	c0.9,0.6,1.6,1.5,2,2.5c0.1,0.2,0.2,0.4,0.2,0.6C637.3,489.5,637.4,490.4,637.3,491.3z"/>
<path class="st6" d="M298.1,505v3.2c0,2.4-1.4,4.5-3.5,5.5l-40.1,0.8c-2.2-1-3.6-3.2-3.6-5.6v-3L298.1,505z"/>
<polygon class="st3" points="298.6,515.6 246.4,516.6 246.4,507.9 298.6,506.9 "/>
<polygon class="st6" points="298.6,515.6 246.4,516.6 246.4,507.9 298.6,506.9 "/>
<polygon class="st3" points="300.6,515.6 248.4,516.6 248.4,507.9 300.6,506.9 "/>
<g class="st1">
	<path d="M473.6,188.6c-1-1.3-1.6-2.8-1.9-4.3c-0.2,1.5-0.1,3.1,0.4,4.6C472.6,188.9,473.1,188.8,473.6,188.6z"/>
	<path d="M460.9,195.3c-0.2-1.2-0.3-2.5-0.4-3.7c0,1.2,0,2.5,0,3.7L460.9,195.3z"/>
	<path d="M542.4,228.7c0.1-0.9,0.2-1.8,0.4-2.6c0.5-1.5,0.7-3.1,0.8-4.7c0-0.4-0.1-0.7-0.2-1.1c-0.2,0.9-0.4,1.8-0.6,2.8
		C542.4,224.9,542.2,226.8,542.4,228.7z"/>
	<path d="M521.6,197.8l1.1,0.8c0.9-0.7,1.8-1.4,2.6-2.2c0.8-1.1,0.9-2.4,0.4-3.6c-0.1,0.2-0.2,0.4-0.4,0.6
		C524,194.9,521.3,195.8,521.6,197.8z"/>
	<path d="M439.4,207.4c-0.4,0.7-0.7,1.5-0.9,2.3c1.6-0.9,3.2-1.5,5-1.9L439.4,207.4z"/>
	<path d="M453.2,196.5c-0.7-0.4-1.3-0.8-1.9-1.2c0,0.4,0,0.8,0.1,1.2C452,196.4,452.6,196.4,453.2,196.5z"/>
	<path d="M551,255.4c-0.4,4.9-2.7,9.5-4.5,14.1c-3.7,9.2-5.7,19-7.3,28.8c-1.4,8.8-3,18.8-10.5,23.6c-2.1,1.3-4.4,2.3-6.8,3
		c-10.8,3.7-21.6,7.5-33,8.8s-23.3,0.2-33.2-5.5c-2.9-1.5-5.3-3.7-7.2-6.3c-2.7-4.2-2.7-9.5-4-14.4c-1.1-3.6-2.4-7.1-4-10.5
		c-2.2-5.4-3.9-11-5.6-16.5c-1.6-5.1-3.1-10.3-4.7-15.4c-0.5-1.5-0.9-3.1-1.1-4.8c-0.4,2.6,0.4,5.2,1.1,7.8
		c1.6,5.2,3.1,10.3,4.7,15.4c1.7,5.6,3.4,11.1,5.6,16.5c1.6,3.4,2.9,6.9,4,10.5c1.3,4.8,1.3,10.1,4,14.4c1.8,2.7,4.3,4.8,7.2,6.3
		c9.9,5.7,21.8,6.9,33.2,5.5s22.2-5.1,33-8.8c2.4-0.7,4.7-1.7,6.8-3c7.4-4.9,9.1-14.9,10.5-23.6c1.5-9.8,3.6-19.6,7.3-28.8
		c2.2-5.5,5-11,4.5-16.9C551,255.5,551,255.5,551,255.4z"/>
	<path d="M431.3,251.5c0,0,0-0.1,0-0.1c0.2-1.8,0-3.5-0.5-5.2c-0.2-1.1-0.3-2.2-0.4-3.3c-0.1,2.1,0,4.2,0.4,6.3
		C431,250,431.2,250.8,431.3,251.5z"/>
	<path d="M434.3,227.1c0.8-1.3,1.6-2.5,2.6-3.7c-1.8,1.8-5.2,0.2-5.9-2.2c-0.3,1-0.3,2,0,3C431.5,225.7,432.8,226.8,434.3,227.1z"/>
</g>
<path class="st6" d="M684.1,483.7c0,0,3.2,11.5,0,21.5C680.9,515.2,684.1,483.7,684.1,483.7z"/>
<path class="st6" d="M697.6,495.4c0,0,1.3,14.6-1.7,17.2C692.9,515.2,697.6,495.4,697.6,495.4z"/>
<line class="st10" x1="199" y1="342.9" x2="300.6" y2="341.9"/>
<line class="st10" x1="199" y1="355.3" x2="300.6" y2="354.3"/>
<line class="st10" x1="199" y1="367.8" x2="300.6" y2="366.8"/>
</svg>
